<?xml version="1.0" standalone="no"?>
<!DOCTYPE svg PUBLIC "-//W3C//DTD SVG 20010904//EN"
 "http://www.w3.org/TR/2001/REC-SVG-20010904/DTD/svg10.dtd">
<svg version="1.0" xmlns="http://www.w3.org/2000/svg"
 width="512.000000pt" height="512.000000pt" viewBox="0 0 512.000000 512.000000"
 preserveAspectRatio="xMidYMid meet">

<g transform="translate(0.000000,512.000000) scale(0.100000,-0.100000)"
fill="#000000" stroke="none">
<path d="M3475 4786 c-16 -8 -600 -585 -1296 -1283 -1210 -1211 -1268 -1271
-1302 -1340 -47 -95 -61 -167 -54 -278 5 -104 30 -177 87 -262 21 -32 201
-220 402 -419 388 -385 412 -405 543 -439 86 -22 684 -22 770 0 143 38 89 -12
1332 1229 791 790 1154 1160 1159 1179 3 15 3 39 -1 55 -8 35 -1505 1538
-1552 1558 -39 17 -50 17 -88 0z m720 -916 l670 -670 -778 -778 -777 -777
-672 673 -673 672 775 775 c426 426 777 775 780 775 3 0 307 -302 675 -670z
m-1710 -1710 l670 -670 -235 -235 c-196 -195 -246 -239 -295 -262 l-60 -28
-325 0 -325 0 -60 28 c-52 24 -108 76 -412 380 -402 402 -408 410 -408 547 0
137 5 144 413 553 196 196 359 357 362 357 3 0 307 -302 675 -670z"/>
<path d="M65 951 c-39 -16 -60 -51 -60 -98 0 -38 5 -49 33 -74 l32 -29 570 0
570 0 32 29 c28 25 33 36 33 75 0 36 -6 51 -28 73 l-27 28 -568 2 c-312 1
-576 -2 -587 -6z"/>
<path d="M1101 499 c-42 -42 -43 -95 -2 -141 l29 -33 986 -3 c1085 -3 1038 -5
1071 58 21 42 13 89 -22 124 l-26 26 -1003 0 -1002 0 -31 -31z"/>
</g>
</svg>
